<mxfile host="app.diagrams.net" modified="2024-04-13T10:31:39.597Z" agent="Mozilla/5.0 (Windows NT 10.0; Win64; x64) AppleWebKit/537.36 (KHTML, like Gecko) Chrome/123.0.0.0 Safari/537.36" etag="im-xQNdSXREa83lUSEFp" version="24.2.5" type="device">
  <diagram name="Страница — 1" id="UhkUFEkIyVL_jiRhaYlm">
    <mxGraphModel dx="775" dy="469" grid="1" gridSize="10" guides="1" tooltips="1" connect="1" arrows="1" fold="1" page="1" pageScale="1" pageWidth="827" pageHeight="1169" math="0" shadow="0">
      <root>
        <mxCell id="0" />
        <mxCell id="1" parent="0" />
        <mxCell id="kzaoGCTBAh5M3qT0GMS3-1" value="&lt;font style=&quot;font-size: 18px;&quot;&gt;Animals&lt;/font&gt;" style="rounded=1;whiteSpace=wrap;html=1;" vertex="1" parent="1">
          <mxGeometry x="330" y="300" width="120" height="60" as="geometry" />
        </mxCell>
        <mxCell id="kzaoGCTBAh5M3qT0GMS3-2" value="&lt;font style=&quot;font-size: 18px;&quot;&gt;Pets&lt;/font&gt;" style="rounded=1;whiteSpace=wrap;html=1;" vertex="1" parent="1">
          <mxGeometry x="240" y="430" width="120" height="60" as="geometry" />
        </mxCell>
        <mxCell id="kzaoGCTBAh5M3qT0GMS3-3" value="" style="endArrow=classic;html=1;rounded=0;entryX=0.25;entryY=1;entryDx=0;entryDy=0;exitX=0.5;exitY=0;exitDx=0;exitDy=0;" edge="1" parent="1" source="kzaoGCTBAh5M3qT0GMS3-2" target="kzaoGCTBAh5M3qT0GMS3-1">
          <mxGeometry width="50" height="50" relative="1" as="geometry">
            <mxPoint x="360" y="410" as="sourcePoint" />
            <mxPoint x="410" y="360" as="targetPoint" />
          </mxGeometry>
        </mxCell>
        <mxCell id="kzaoGCTBAh5M3qT0GMS3-4" value="&lt;font style=&quot;font-size: 18px;&quot;&gt;Pack animals&lt;/font&gt;" style="rounded=1;whiteSpace=wrap;html=1;" vertex="1" parent="1">
          <mxGeometry x="400" y="430" width="120" height="60" as="geometry" />
        </mxCell>
        <mxCell id="kzaoGCTBAh5M3qT0GMS3-5" value="" style="endArrow=classic;html=1;rounded=0;entryX=0.75;entryY=1;entryDx=0;entryDy=0;exitX=0.5;exitY=0;exitDx=0;exitDy=0;" edge="1" parent="1" source="kzaoGCTBAh5M3qT0GMS3-4" target="kzaoGCTBAh5M3qT0GMS3-1">
          <mxGeometry width="50" height="50" relative="1" as="geometry">
            <mxPoint x="520" y="410" as="sourcePoint" />
            <mxPoint x="520" y="360" as="targetPoint" />
          </mxGeometry>
        </mxCell>
        <mxCell id="kzaoGCTBAh5M3qT0GMS3-6" value="&lt;font style=&quot;font-size: 18px;&quot;&gt;hamster&lt;/font&gt;" style="rounded=1;whiteSpace=wrap;html=1;" vertex="1" parent="1">
          <mxGeometry x="240" y="560" width="120" height="60" as="geometry" />
        </mxCell>
        <mxCell id="kzaoGCTBAh5M3qT0GMS3-7" value="" style="endArrow=classic;html=1;rounded=0;entryX=0.5;entryY=1;entryDx=0;entryDy=0;exitX=0.5;exitY=0;exitDx=0;exitDy=0;" edge="1" parent="1" source="kzaoGCTBAh5M3qT0GMS3-6" target="kzaoGCTBAh5M3qT0GMS3-2">
          <mxGeometry width="50" height="50" relative="1" as="geometry">
            <mxPoint x="360" y="540" as="sourcePoint" />
            <mxPoint x="360" y="490" as="targetPoint" />
          </mxGeometry>
        </mxCell>
        <mxCell id="kzaoGCTBAh5M3qT0GMS3-8" value="&lt;font style=&quot;font-size: 18px;&quot;&gt;dog&lt;/font&gt;" style="rounded=1;whiteSpace=wrap;html=1;" vertex="1" parent="1">
          <mxGeometry x="80" y="560" width="120" height="60" as="geometry" />
        </mxCell>
        <mxCell id="kzaoGCTBAh5M3qT0GMS3-9" value="" style="endArrow=classic;html=1;rounded=0;entryX=0.25;entryY=1;entryDx=0;entryDy=0;exitX=1;exitY=0;exitDx=0;exitDy=0;" edge="1" parent="1" source="kzaoGCTBAh5M3qT0GMS3-8" target="kzaoGCTBAh5M3qT0GMS3-2">
          <mxGeometry width="50" height="50" relative="1" as="geometry">
            <mxPoint x="200" y="540" as="sourcePoint" />
            <mxPoint x="140" y="490" as="targetPoint" />
          </mxGeometry>
        </mxCell>
        <mxCell id="kzaoGCTBAh5M3qT0GMS3-10" value="&lt;font style=&quot;font-size: 18px;&quot;&gt;cat&lt;/font&gt;" style="rounded=1;whiteSpace=wrap;html=1;" vertex="1" parent="1">
          <mxGeometry x="80" y="430" width="120" height="60" as="geometry" />
        </mxCell>
        <mxCell id="kzaoGCTBAh5M3qT0GMS3-13" style="edgeStyle=orthogonalEdgeStyle;rounded=0;orthogonalLoop=1;jettySize=auto;html=1;exitX=1;exitY=0.5;exitDx=0;exitDy=0;" edge="1" parent="1" source="kzaoGCTBAh5M3qT0GMS3-10" target="kzaoGCTBAh5M3qT0GMS3-2">
          <mxGeometry relative="1" as="geometry" />
        </mxCell>
        <mxCell id="kzaoGCTBAh5M3qT0GMS3-14" value="&lt;font style=&quot;font-size: 18px;&quot;&gt;camel&lt;/font&gt;" style="rounded=1;whiteSpace=wrap;html=1;" vertex="1" parent="1">
          <mxGeometry x="560" y="560" width="120" height="60" as="geometry" />
        </mxCell>
        <mxCell id="kzaoGCTBAh5M3qT0GMS3-15" value="&lt;font style=&quot;font-size: 18px;&quot;&gt;horse&lt;/font&gt;" style="rounded=1;whiteSpace=wrap;html=1;" vertex="1" parent="1">
          <mxGeometry x="560" y="430" width="120" height="60" as="geometry" />
        </mxCell>
        <mxCell id="kzaoGCTBAh5M3qT0GMS3-16" value="&lt;font style=&quot;font-size: 18px;&quot;&gt;donkey&lt;/font&gt;" style="rounded=1;whiteSpace=wrap;html=1;" vertex="1" parent="1">
          <mxGeometry x="400" y="560" width="120" height="60" as="geometry" />
        </mxCell>
        <mxCell id="kzaoGCTBAh5M3qT0GMS3-17" value="" style="endArrow=classic;html=1;rounded=0;exitX=0.5;exitY=0;exitDx=0;exitDy=0;entryX=0.5;entryY=1;entryDx=0;entryDy=0;" edge="1" parent="1" source="kzaoGCTBAh5M3qT0GMS3-16" target="kzaoGCTBAh5M3qT0GMS3-4">
          <mxGeometry width="50" height="50" relative="1" as="geometry">
            <mxPoint x="340" y="510" as="sourcePoint" />
            <mxPoint x="390" y="460" as="targetPoint" />
          </mxGeometry>
        </mxCell>
        <mxCell id="kzaoGCTBAh5M3qT0GMS3-18" value="" style="endArrow=classic;html=1;rounded=0;exitX=0;exitY=0.5;exitDx=0;exitDy=0;entryX=1;entryY=0.5;entryDx=0;entryDy=0;" edge="1" parent="1" source="kzaoGCTBAh5M3qT0GMS3-15" target="kzaoGCTBAh5M3qT0GMS3-4">
          <mxGeometry width="50" height="50" relative="1" as="geometry">
            <mxPoint x="340" y="510" as="sourcePoint" />
            <mxPoint x="390" y="460" as="targetPoint" />
          </mxGeometry>
        </mxCell>
        <mxCell id="kzaoGCTBAh5M3qT0GMS3-19" value="" style="endArrow=classic;html=1;rounded=0;exitX=0;exitY=0;exitDx=0;exitDy=0;entryX=0.75;entryY=1;entryDx=0;entryDy=0;" edge="1" parent="1" source="kzaoGCTBAh5M3qT0GMS3-14" target="kzaoGCTBAh5M3qT0GMS3-4">
          <mxGeometry width="50" height="50" relative="1" as="geometry">
            <mxPoint x="340" y="510" as="sourcePoint" />
            <mxPoint x="390" y="460" as="targetPoint" />
          </mxGeometry>
        </mxCell>
      </root>
    </mxGraphModel>
  </diagram>
</mxfile>
